<?xml version="1.0" encoding="UTF-8" standalone="no"?>
<!-- Created with Inkscape (http://www.inkscape.org/) -->

<svg
   xmlns:dc="http://purl.org/dc/elements/1.1/"
   xmlns:cc="http://creativecommons.org/ns#"
   xmlns:rdf="http://www.w3.org/1999/02/22-rdf-syntax-ns#"
   xmlns:svg="http://www.w3.org/2000/svg"
   xmlns="http://www.w3.org/2000/svg"
   xmlns:sodipodi="http://sodipodi.sourceforge.net/DTD/sodipodi-0.dtd"
   xmlns:inkscape="http://www.inkscape.org/namespaces/inkscape"
   width="36"
   height="34.00005"
   viewBox="0 0 9.5249997 8.9958467"
   version="1.1"
   id="svg8"
   inkscape:version="0.92.3 (2405546, 2018-03-11)"
   sodipodi:docname="16storybits_logo.svg">
  <defs
     id="defs2" />
  <sodipodi:namedview
     id="base"
     pagecolor="#ffffff"
     bordercolor="#666666"
     borderopacity="1.0"
     inkscape:pageopacity="0.0"
     inkscape:pageshadow="2"
     inkscape:zoom="11.313708"
     inkscape:cx="9.6725679"
     inkscape:cy="24.019317"
     inkscape:document-units="mm"
     inkscape:current-layer="layer1"
     showgrid="true"
     units="px"
     inkscape:window-width="1920"
     inkscape:window-height="1017"
     inkscape:window-x="-8"
     inkscape:window-y="-8"
     inkscape:window-maximized="1"
     fit-margin-top="1"
     fit-margin-left="1"
     fit-margin-right="1"
     fit-margin-bottom="1">
    <inkscape:grid
       type="xygrid"
       id="grid815"
       originx="3.3333332e-008"
       originy="-62.441668" />
  </sodipodi:namedview>
  <metadata
     id="metadata5">
    <rdf:RDF>
      <cc:Work
         rdf:about="">
        <dc:format>image/svg+xml</dc:format>
        <dc:type
           rdf:resource="http://purl.org/dc/dcmitype/StillImage" />
        <dc:title></dc:title>
      </cc:Work>
    </rdf:RDF>
  </metadata>
  <g
     inkscape:label="Layer 1"
     inkscape:groupmode="layer"
     id="layer1"
     transform="translate(3.3333333e-8,-225.56247)">
    <path
       style="fill:#000000;fill-opacity:1;stroke:#ffffff;stroke-width:0.26458333;stroke-linecap:butt;stroke-linejoin:miter;stroke-opacity:1;paint-order:markers stroke fill;stroke-miterlimit:4;stroke-dasharray:none"
       d="m 0.5291667,230.58957 v 0.26458 H 0.2645833 v 0.26459 h 0.2645834 v 0.26458 H 0.79375 1.0583333 1.3229167 v 0.26458 H 0.2645833 v 0.26459 H 1.5875 v -0.26459 h 0.2645834 v -0.26458 H 1.5875 v -0.26458 H 0.79375 v -0.26459 h 1.0583334 v -0.26458 z"
       id="path816"
       inkscape:connector-curvature="0"
       sodipodi:nodetypes="ccccccccccccccccccccccc" />
    <path
       style="fill:#000000;fill-opacity:1;stroke:#ffffff;stroke-width:0.26458333;stroke-linecap:butt;stroke-linejoin:miter;stroke-opacity:1;paint-order:markers stroke fill;stroke-miterlimit:4;stroke-dasharray:none"
       d="m 2.1166667,230.58957 v 0.26458 h 0.5291666 v 0.79375 h 0.2645833 v 0.26459 h 0.79375 V 231.6479 H 3.175 v -0.79375 h 0.5291666 v -0.26458 H 3.175 V 230.0604 H 2.6458333 v 0.52917 z"
       id="path818"
       inkscape:connector-curvature="0" />
    <path
       style="fill:#000000;fill-opacity:1;stroke:#ffffff;stroke-width:0.26458333;stroke-linecap:butt;stroke-linejoin:miter;stroke-opacity:1;paint-order:markers stroke fill;stroke-miterlimit:4;stroke-dasharray:none"
       d="m 4.2333333,230.58957 v 0.26458 H 3.96875 v 0.79375 h 0.2645833 v 0.26458 h 1.0583333 v -0.26458 h 0.2645833 v -0.79375 H 5.2916666 v -0.26458 z m 0.2645833,0.26458 h 0.5291667 v 0.79375 H 4.4979166 Z"
       id="path828"
       inkscape:connector-curvature="0" />
    <path
       style="fill:#000000;fill-opacity:1;stroke:#ffffff;stroke-width:0.26458333;stroke-linecap:butt;stroke-linejoin:miter;stroke-opacity:1;paint-order:markers stroke fill;stroke-miterlimit:4;stroke-dasharray:none"
       d="m 5.8208333,230.58957 v 1.32292 h 0.5291666 v -1.05834 h 0.5291667 v 0.26459 h 0.5291667 v -0.26459 H 7.1437499 v -0.26458 z"
       id="path833"
       inkscape:connector-curvature="0" />
    <path
       style="fill:#000000;fill-opacity:1;stroke:#ffffff;stroke-width:0.26458333;stroke-linecap:butt;stroke-linejoin:miter;stroke-opacity:1;paint-order:markers stroke fill;stroke-miterlimit:4;stroke-dasharray:none"
       d="m 7.6729166,230.58957 v 0.79375 h 0.2645833 v 0.26458 h 0.5291668 v 0.26459 H 7.6729166 v 0.26458 h 1.0583331 v -0.26458 h 0.264584 v -0.26459 h 0.264583 v -1.05833 h -0.529167 v 0.79375 h -0.529166 v -0.79375 z"
       id="path835"
       inkscape:connector-curvature="0" />
    <path
       style="fill:#000000;fill-opacity:1;stroke:#ffffff;stroke-width:0.26458333;stroke-linecap:butt;stroke-linejoin:miter;stroke-opacity:1;paint-order:markers stroke fill;stroke-miterlimit:4;stroke-dasharray:none"
       d="m 1.5875001,232.70623 v 1.5875 h 1.3229166 v -0.26459 h 0.2645834 v -0.52916 H 2.9104167 v -0.26459 h -0.79375 v -0.52916 z m 0.5291666,0.79375 h 0.5291667 v 0.52916 H 2.1166667 Z"
       id="path837"
       inkscape:connector-curvature="0" />
    <path
       style="fill:#000000;fill-opacity:1;stroke:#ffffff;stroke-width:0.26458333;stroke-linecap:butt;stroke-linejoin:miter;stroke-opacity:1;paint-order:markers stroke fill;stroke-miterlimit:4;stroke-dasharray:none"
       d="m 3.4395832,233.23539 v 0.26459 h 0.264584 v 0.52916 h -0.264584 v 0.26459 h 1.058334 v -0.26459 h -0.264584 v -0.79375 z"
       id="path842"
       inkscape:connector-curvature="0"
       sodipodi:nodetypes="ccccccccccc" />
    <path
       style="fill:#000000;fill-opacity:1;stroke:#ffffff;stroke-width:0.26458333;stroke-linecap:butt;stroke-linejoin:miter;stroke-opacity:1;paint-order:markers stroke fill;stroke-miterlimit:4;stroke-dasharray:none"
       d="m 3.7041672,232.70623 v 0.26458 h 0.529166 v -0.26458 z"
       id="path844"
       inkscape:connector-curvature="0" />
    <path
       style="fill:#000000;fill-opacity:1;stroke:#ffffff;stroke-width:0.26458333;stroke-linecap:butt;stroke-linejoin:miter;stroke-opacity:1;paint-order:markers stroke fill;stroke-miterlimit:4;stroke-dasharray:none"
       d="m 4.7625002,232.97081 v 0.26458 h 0.529167 v 0.79375 h 0.264583 v 0.26459 h 0.79375 v -0.26459 h -0.529167 v -0.79375 h 0.529167 v -0.26458 h -0.529167 v -0.52917 h -0.529166 v 0.52917 z"
       id="path818-1"
       inkscape:connector-curvature="0" />
    <path
       style="fill:#000000;fill-opacity:1;stroke:#ffffff;stroke-width:0.26458333;stroke-linecap:butt;stroke-linejoin:miter;stroke-opacity:1;paint-order:markers stroke fill;stroke-miterlimit:4;stroke-dasharray:none"
       d="m 6.8791662,232.97081 v 0.26458 h -0.264583 v 0.26459 h 0.264583 v 0.26458 h 0.264583 0.264584 0.264583 v 0.26458 h -1.058333 v 0.26459 h 1.322916 v -0.26459 h 0.264584 v -0.26458 h -0.264584 v -0.26458 h -0.79375 v -0.26459 h 1.058334 v -0.26458 z"
       id="path816-8"
       inkscape:connector-curvature="0"
       sodipodi:nodetypes="ccccccccccccccccccccccc" />
    <path
       style="fill:#000000;fill-opacity:1;stroke:#ffffff;stroke-width:0.26458333;stroke-linecap:butt;stroke-linejoin:miter;stroke-opacity:1;paint-order:markers stroke fill;stroke-miterlimit:4;stroke-dasharray:none"
       d="m 2.38125,225.82705 v 1.05834 H 1.8520832 v 0.52916 H 2.38125 v 1.58749 H 1.3229166 v 0.52916 h 3.175 v -0.52916 H 3.4395832 v -3.17499 z"
       id="path876"
       inkscape:connector-curvature="0" />
    <path
       style="fill:#000000;fill-opacity:1;stroke:#ffffff;stroke-width:0.26458333;stroke-linecap:butt;stroke-linejoin:miter;stroke-opacity:1;paint-order:markers stroke fill;stroke-miterlimit:4;stroke-dasharray:none"
       d="m 5.5562498,225.82705 v 0.52918 H 5.0270832 v 2.64581 h 0.5291666 v 0.52918 h 2.1166669 v -0.52918 h 0.5291666 v -1.05831 H 7.6729167 v -0.52918 H 6.0854166 v -1.05832 h 1.0583333 v 0.52916 h 1.0583334 v -0.52916 H 7.6729167 v -0.52918 z m 0.5291668,2.11668 h 1.0583333 v 1.05831 H 6.0854166 Z"
       id="path878"
       inkscape:connector-curvature="0" />
  </g>
</svg>
