<?xml version="1.0" standalone="no"?>
<!DOCTYPE svg PUBLIC "-//W3C//DTD SVG 20010904//EN"
 "http://www.w3.org/TR/2001/REC-SVG-20010904/DTD/svg10.dtd">
<svg version="1.0" xmlns="http://www.w3.org/2000/svg"
 width="576.000000pt" height="576.000000pt" viewBox="0 0 576.000000 576.000000"
 preserveAspectRatio="xMidYMid meet">
<metadata>
Created by potrace 1.11, written by Peter Selinger 2001-2013
</metadata>
<g transform="translate(0.000000,576.000000) scale(0.100000,-0.100000)"
fill="#000000" stroke="none">
<path d="M1440 5120 l0 -320 -160 0 -160 0 0 -160 0 -160 160 0 160 0 0 -480
0 -480 -320 0 -320 0 0 -160 0 -160 960 0 960 0 0 160 0 160 -320 0 -320 0 0
960 0 960 -320 0 -320 0 0 -320z"/>
<path d="M3360 5280 l0 -160 -160 0 -160 0 0 -800 0 -800 160 0 160 0 0 -160
0 -160 640 0 640 0 0 160 0 160 160 0 160 0 0 320 0 320 -160 0 -160 0 0 160
0 160 -480 0 -480 0 0 320 0 320 320 0 320 0 0 -160 0 -160 320 0 320 0 0 160
0 160 -160 0 -160 0 0 160 0 160 -640 0 -640 0 0 -160z m960 -1440 l0 -320
-320 0 -320 0 0 320 0 320 320 0 320 0 0 -320z"/>
<path d="M1600 2720 l0 -160 -160 0 -160 0 0 -80 0 -80 160 0 160 0 0 -240 0
-240 80 0 80 0 0 -80 0 -80 240 0 240 0 0 80 0 80 -160 0 -160 0 0 240 0 240
160 0 160 0 0 80 0 80 -160 0 -160 0 0 160 0 160 -160 0 -160 0 0 -160z"/>
<path d="M320 2480 l0 -80 -80 0 -80 0 0 -80 0 -80 80 0 80 0 0 -80 0 -80 240
0 240 0 0 -80 0 -80 -320 0 -320 0 0 -80 0 -80 400 0 400 0 0 80 0 80 80 0 80
0 0 80 0 80 -80 0 -80 0 0 80 0 80 -240 0 -240 0 0 80 0 80 320 0 320 0 0 80
0 80 -400 0 -400 0 0 -80z"/>
<path d="M2560 2480 l0 -80 -80 0 -80 0 0 -240 0 -240 80 0 80 0 0 -80 0 -80
320 0 320 0 0 80 0 80 80 0 80 0 0 240 0 240 -80 0 -80 0 0 80 0 80 -320 0
-320 0 0 -80z m480 -320 l0 -240 -160 0 -160 0 0 240 0 240 160 0 160 0 0
-240z"/>
<path d="M3520 2160 l0 -400 160 0 160 0 0 320 0 320 160 0 160 0 0 -80 0 -80
160 0 160 0 0 80 0 80 -80 0 -80 0 0 80 0 80 -400 0 -400 0 0 -400z"/>
<path d="M4640 2320 l0 -240 80 0 80 0 0 -80 0 -80 160 0 160 0 0 -80 0 -80
-240 0 -240 0 0 -80 0 -80 320 0 320 0 0 80 0 80 80 0 80 0 0 80 0 80 80 0 80
0 0 320 0 320 -160 0 -160 0 0 -240 0 -240 -160 0 -160 0 0 240 0 240 -160 0
-160 0 0 -240z"/>
<path d="M3200 1280 l0 -160 -160 0 -160 0 0 -80 0 -80 160 0 160 0 0 -240 0
-240 80 0 80 0 0 -80 0 -80 240 0 240 0 0 80 0 80 -160 0 -160 0 0 240 0 240
160 0 160 0 0 80 0 80 -160 0 -160 0 0 160 0 160 -160 0 -160 0 0 -160z"/>
<path d="M960 800 l0 -480 400 0 400 0 0 80 0 80 80 0 80 0 0 160 0 160 -80 0
-80 0 0 80 0 80 -240 0 -240 0 0 160 0 160 -160 0 -160 0 0 -480z m640 -160
l0 -160 -160 0 -160 0 0 160 0 160 160 0 160 0 0 -160z"/>
<path d="M2240 1200 l0 -80 160 0 160 0 0 80 0 80 -160 0 -160 0 0 -80z"/>
<path d="M4160 1040 l0 -80 -80 0 -80 0 0 -80 0 -80 80 0 80 0 0 -80 0 -80
240 0 240 0 0 -80 0 -80 -320 0 -320 0 0 -80 0 -80 400 0 400 0 0 80 0 80 80
0 80 0 0 80 0 80 -80 0 -80 0 0 80 0 80 -240 0 -240 0 0 80 0 80 320 0 320 0
0 80 0 80 -400 0 -400 0 0 -80z"/>
<path d="M2080 880 l0 -80 80 0 80 0 0 -160 0 -160 -80 0 -80 0 0 -80 0 -80
320 0 320 0 0 80 0 80 -80 0 -80 0 0 240 0 240 -240 0 -240 0 0 -80z"/>
</g>
</svg>
